<?xml version="1.0" encoding="UTF-8" standalone="no"?>
<!-- Created with Inkscape (http://www.inkscape.org/) -->

<svg
   xmlns:dc="http://purl.org/dc/elements/1.1/"
   xmlns:cc="http://creativecommons.org/ns#"
   xmlns:rdf="http://www.w3.org/1999/02/22-rdf-syntax-ns#"
   xmlns:svg="http://www.w3.org/2000/svg"
   xmlns="http://www.w3.org/2000/svg"
   xmlns:sodipodi="http://sodipodi.sourceforge.net/DTD/sodipodi-0.dtd"
   xmlns:inkscape="http://www.inkscape.org/namespaces/inkscape"
   id="Layer_1"
   sodipodi:docname="donkey.svg"
   xml:space="preserve"
   version="1.0"
   inkscape:version="0.91 r13725"
   viewBox="0 0 253.99944 299.14704"
   width="253.99944"
   height="299.14703"><defs
     id="defs38" /><sodipodi:namedview
     id="namedview169"
     bordercolor="#666666"
     inkscape:pageshadow="2"
     guidetolerance="10"
     pagecolor="#ffffff"
     gridtolerance="10"
     inkscape:window-maximized="0"
     inkscape:zoom="1.4533338"
     objecttolerance="10"
     borderopacity="1"
     inkscape:current-layer="Layer_1"
     inkscape:cx="123.90734"
     inkscape:cy="160.72188"
     inkscape:window-y="50"
     inkscape:window-x="1970"
     inkscape:window-width="787"
     showgrid="false"
     inkscape:pageopacity="0"
     inkscape:window-height="644"
     inkscape:showpageshadow="false"
     fit-margin-top="10"
     fit-margin-left="10"
     fit-margin-bottom="10"
     fit-margin-right="10" /><g
     id="g236"
     inkscape:export-ydpi="300"
     inkscape:export-xdpi="300"
     inkscape:export-filename="D:\_PROJEKTY\smart_wsparcie_sprzedazy\se_propoyzcje_kontenery\gra_dla_dzieci(2-4-6)\materialy\Zwierzęta\Zwierzęta\g311.png"
     transform="matrix(0.93696,0,0,1,15.580506,7.977001)"
     style="stroke:none"><path
       id="path2383_2_"
       style="fill:#6c5353;stroke:none;stroke-width:3.28740001;stroke-linecap:round;stroke-linejoin:round"
       inkscape:connector-curvature="0"
       d="M 229.84,161.2 C 229.858,221.708 180.811,270.77 120.3,270.77 59.792,270.77 10.74,221.708 10.76,161.2 10.742,100.692 59.789,51.63 120.3,51.63 c 60.508,0 109.56,49.062 109.54,109.57 z" /><path
       id="path3221"
       style="fill:#483737;fill-opacity:0.3137;stroke:none"
       inkscape:connector-curvature="0"
       d="m 223.22,123.63 c 0.076,1.682 0.125,3.393 0.125,5.094 0,60.464 -49.068,109.53 -109.53,109.53 -47.262,0 -87.592,-30 -102.94,-71.969 2.653,58.111 50.674,104.47 109.44,104.47 60.463,0 109.53,-49.067 109.53,-109.53 0,-13.202 -2.338,-25.87 -6.625,-37.594 z" /></g><g
     id="g250"
     inkscape:export-ydpi="300"
     inkscape:export-xdpi="300"
     inkscape:export-filename="D:\_PROJEKTY\smart_wsparcie_sprzedazy\se_propoyzcje_kontenery\gra_dla_dzieci(2-4-6)\materialy\Zwierzęta\Zwierzęta\g311.png"
     style="stroke:none"
     transform="translate(7.9964064,7.977001)"><g
       id="g252"
       style="stroke:none"><path
         id="path3329"
         style="fill:#343434;stroke:none;stroke-width:4;stroke-linecap:round;stroke-linejoin:round"
         d="m 112.81,271.78 c 0,9.09 -14.667,9.38 -32.736,9.38 -18.07,0 -32.736,0.69 -32.736,-9.38 0,-17.72 14.666,-32.1 32.736,-32.1 18.069,0 32.736,14.38 32.736,32.1 z"
         inkscape:connector-curvature="0" /><path
         id="path3331"
         style="fill:#010101;fill-opacity:0.3137;stroke:none;stroke-width:4;stroke-linejoin:round"
         d="m 67.483,280.56 c 0,-16.37 9.442,-26.44 9.442,-26.44 0,0 -3.777,13.85 -3.147,26.44 l -6.295,0 z"
         inkscape:connector-curvature="0" /></g><g
       id="g256"
       style="stroke:none"><path
         id="path3172"
         style="fill:#343434;stroke:none;stroke-width:4;stroke-linecap:round;stroke-linejoin:round"
         d="m 127.81,271.78 c 0,9.09 14.66,9.38 32.73,9.38 18.07,0 32.74,0.69 32.74,-9.38 0,-17.72 -14.67,-32.1 -32.74,-32.1 -18.07,0 -32.73,14.38 -32.73,32.1 z"
         inkscape:connector-curvature="0" /><path
         id="path3174"
         style="fill:#010101;fill-opacity:0.3137;stroke:none;stroke-width:4;stroke-linejoin:round"
         d="m 173.13,280.56 c 0,-16.37 -9.44,-26.44 -9.44,-26.44 0,0 3.78,13.85 3.15,26.44 l 6.29,0 z"
         inkscape:connector-curvature="0" /></g></g><g
     id="g260"
     inkscape:export-ydpi="300"
     inkscape:export-xdpi="300"
     inkscape:export-filename="D:\_PROJEKTY\smart_wsparcie_sprzedazy\se_propoyzcje_kontenery\gra_dla_dzieci(2-4-6)\materialy\Zwierzęta\Zwierzęta\g311.png"
     transform="translate(7.0233264,22.573001)"
     style="fill:#ac9393;stroke:none"><path
       id="path262"
       style="fill:#ac9393;stroke:none;stroke-width:4;stroke-linecap:round;stroke-linejoin:round"
       inkscape:connector-curvature="0"
       d="m 113.92,34.501 c 0.729,0.092 1.46,0.22 2.203,0.33 19.911,2.985 34.102,11.633 43.385,23.958 l 12.053,-16.931 c -0.082,-0.002 -0.163,-0.014 -0.247,-0.015 -8.23,-19.026 -24.54,-32.751 -50.74,-36.681 -0.74,-0.112 -1.47,-0.239 -2.2,-0.331 C 107.814,3.51 98.356,4.225 89.963,6.63 l -4.448,29.667 c 8.391,-2.404 17.849,-3.119 28.407,-1.796 z" /></g><g
     id="g280"
     inkscape:export-ydpi="300"
     inkscape:export-xdpi="300"
     inkscape:export-filename="D:\_PROJEKTY\smart_wsparcie_sprzedazy\se_propoyzcje_kontenery\gra_dla_dzieci(2-4-6)\materialy\Zwierzęta\Zwierzęta\g311.png"
     style="stroke:none"
     transform="translate(47.996406,7.977001)"><path
       id="path284"
       sodipodi:nodetypes="cccccsccccccccccszszscccc"
       d="m 195.03,4.202 c -5.021,-6.518 -64.881,6.3595 -73.391,39.345 -0.078,0.154 -0.215,0.618 -0.369,1.315 -0.047,0.214 -0.096,0.447 -0.146,0.705 -1.925,-1.174 -3.908,-2.261 -5.935,-3.272 -9.979,-3.714 -21.665,-5.762 -35.173,-5.762 -0.895,0 -1.779,-0.018 -2.656,0 -12.873,0.261 -24.037,2.432 -33.6,6.159 -2.307,1.185 -4.552,2.471 -6.723,3.866 C 36.992,46.276 36.946,46.015 36.901,45.764 36.685,44.581 36.468,43.757 36.364,43.548 29.718,17.776 -8.264,2.028 -26.964,2.023 c -5.237,-0.001 -8.962,0.753 -10.06,2.179 -4.002,5.193 4.251,46.94 26.575,61.389 4.198,2.717 8.894,4.473 14.101,4.833 2.119,0.146 4.11,0.156 5.98,0.119 -5.838,11.05 -9.148,23.634 -9.148,36.993 0,13.517 -2.5848,20.609 9.349,40.84 11.9338,20.231 51.79,45.975 70.186,45.975 18.565,0 56.478,-23.745 68.815,-43.672 12.337,-19.927 10.433,-28.833 10.433,-43.143 0,-13.346 -3.322,-25.91 -9.148,-36.953 1.345,-0.012 2.771,-0.057 4.237,-0.158 5.595,-0.388 10.6,-2.384 15.031,-5.457 21.621,-14.989 29.589,-55.646 25.644,-60.766 z"
       style="fill:#916f6f;stroke:none;stroke-width:4;stroke-linecap:round;stroke-linejoin:round"
       inkscape:connector-curvature="0" /></g><g
     id="g286"
     inkscape:export-ydpi="300"
     inkscape:export-xdpi="300"
     inkscape:export-filename="D:\_PROJEKTY\smart_wsparcie_sprzedazy\se_propoyzcje_kontenery\gra_dla_dzieci(2-4-6)\materialy\Zwierzęta\Zwierzęta\g311.png"
     style="fill:#483737"
     transform="translate(7.9964064,7.977001)"><path
       id="path288"
       d="m 119.63,28.536 c -35.869,0 -66.33,24.378 -77.402,58.299 -1.3,5.692 -1.994,11.615 -1.994,17.701 0,1.284 0.04,2.575 0.101,3.87 9.091,-37.305 23.394,-68.276 78.566,-68.276 55.172,0 70.913,30.952 80.016,68.239 0.059,-1.282 0.1,-2.561 0.1,-3.833 0,-6.169 -0.718,-12.168 -2.057,-17.93 -11.135,-33.802 -41.542,-58.07 -77.33,-58.07 z"
       sodipodi:nodetypes="scsczcscs"
       inkscape:connector-curvature="0"
       style="fill:#483737" /></g><g
     id="g296"
     inkscape:export-ydpi="300"
     inkscape:export-xdpi="300"
     inkscape:export-filename="D:\_PROJEKTY\smart_wsparcie_sprzedazy\se_propoyzcje_kontenery\gra_dla_dzieci(2-4-6)\materialy\Zwierzęta\Zwierzęta\g311.png"
     transform="translate(10.748706,17.610001)"
     style="stroke:none"><path
       id="path3210"
       d="m 118.25,142.73 c -24.824,0 -44.953,16.517 -44.953,36.868 0,3.7743 0.70362,7.4274 1.9921,10.858 15.886,9.677 31.738,15.271 42.961,15.271 11.495,0 27.19,-5.4128 42.845,-14.841 1.391,-3.5531 2.1484,-7.3574 2.1484,-11.287 0,-20.354 -20.17,-36.87 -44.993,-36.87 z"
       style="fill:#ac9393;stroke:none;stroke-width:4.99910021;stroke-linecap:round;stroke-linejoin:round"
       inkscape:connector-curvature="0" /><path
       id="path2412"
       d="m 102.85,169.37 c 2.293,3.974 6.5,5.839 9.396,4.167 2.897,-1.673 3.385,-6.249 1.091,-10.222 -2.292,-3.973 -6.5,-5.838 -9.396,-4.166 -2.896,1.672 -3.385,6.249 -1.091,10.221 z"
       style="fill:#010101;stroke:none"
       inkscape:connector-curvature="0" /><path
       id="path2398"
       d="m 135.58,169.37 c -2.292,3.974 -6.5,5.839 -9.396,4.167 -2.896,-1.673 -3.385,-6.249 -1.091,-10.222 2.293,-3.973 6.5,-5.838 9.396,-4.166 2.898,1.672 3.385,6.249 1.091,10.221 z"
       style="fill:#010101;stroke:none"
       inkscape:connector-curvature="0" /></g><g
     id="g301"
     inkscape:export-ydpi="300"
     inkscape:export-xdpi="300"
     inkscape:export-filename="D:\_PROJEKTY\smart_wsparcie_sprzedazy\se_propoyzcje_kontenery\gra_dla_dzieci(2-4-6)\materialy\Zwierzęta\Zwierzęta\g311.png"
     transform="translate(7.9964064,7.977001)"><g
       id="g303"
       style="stroke:none"><path
         id="path3159"
         d="m 168.03,100.74 c 0.003,12.519 -10.144,22.669 -22.663,22.669 -12.519,0 -22.666,-10.15 -22.662,-22.669 -0.004,-12.52 10.144,-22.67 22.662,-22.67 12.519,0 22.666,10.15 22.663,22.67 z"
         style="fill:#ffffff;stroke:none;stroke-width:4;stroke-linecap:round;stroke-linejoin:round"
         inkscape:connector-curvature="0" /><path
         id="path3161"
         d="m 147.88,104.74 c 0.002,4.174 -3.381,7.557 -7.555,7.557 -4.172,0 -7.555,-3.383 -7.554,-7.557 -10e-4,-4.173 3.382,-7.556 7.554,-7.556 4.174,0 7.557,3.383 7.555,7.556 z"
         style="fill:#010101;stroke:none"
         inkscape:connector-curvature="0" /></g><g
       id="g307"
       style="stroke:none"><path
         id="path3157"
         d="m 115.3,100.74 c 0.004,12.519 -10.144,22.669 -22.662,22.669 -12.52,0 -22.667,-10.15 -22.663,-22.669 -0.004,-12.52 10.144,-22.67 22.663,-22.67 12.518,0 22.666,10.15 22.662,22.67 z"
         style="fill:#ffffff;stroke:none;stroke-width:4;stroke-linecap:round;stroke-linejoin:round"
         inkscape:connector-curvature="0" /><path
         id="path3163"
         d="m 105.85,104.74 c 0,4.174 -3.382,7.557 -7.555,7.557 -4.174,0 -7.556,-3.383 -7.555,-7.557 -10e-4,-4.173 3.381,-7.556 7.555,-7.556 4.173,0 7.555,3.383 7.555,7.556 z"
         style="fill:#010101;stroke:none"
         inkscape:connector-curvature="0" /></g></g><g
     id="g311"
     inkscape:export-ydpi="300"
     inkscape:export-xdpi="300"
     style="fill:#483737;stroke:none"
     transform="translate(7.9964064,7.977001)"><path
       id="path3216_1_"
       sodipodi:nodetypes="csc"
       d="M 62.431,54.958 C 59.919,18.724 22.123,19.474 20.329,23.779 c -1.794,4.305 7.3035,43.735 42.102,31.179 z"
       style="fill:#483737;stroke:none;stroke-width:4;stroke-linejoin:round"
       inkscape:connector-curvature="0" /><path
       id="path3218_1_"
       sodipodi:nodetypes="ccc"
       d="m 177.39,55.079 c 2.511,-36.234 37.268,-36.092 39.061,-31.787 1.794,4.305 -4.2617,44.343 -39.061,31.787 z"
       style="fill:#483737;stroke:none;stroke-width:4;stroke-linejoin:round"
       inkscape:connector-curvature="0" /></g><metadata
     id="metadata36"><rdf:RDF><cc:Work><dc:format>image/svg+xml</dc:format><dc:type
           rdf:resource="http://purl.org/dc/dcmitype/StillImage" /><cc:license
           rdf:resource="http://creativecommons.org/publicdomain/zero/1.0/" /><dc:publisher><cc:Agent
             rdf:about="http://openclipart.org/"><dc:title>Openclipart</dc:title></cc:Agent></dc:publisher><dc:title>Cartoon Horse</dc:title><dc:date>2012-06-21T09:34:23</dc:date><dc:description /><dc:source>https://openclipart.org/detail/170851/cartoon-horse-by-paweo111-170851</dc:source><dc:creator><cc:Agent><dc:title>paweo111</dc:title></cc:Agent></dc:creator><dc:subject><rdf:Bag><rdf:li>cartoon</rdf:li><rdf:li>funny</rdf:li><rdf:li>horse</rdf:li></rdf:Bag></dc:subject></cc:Work><cc:License
         rdf:about="http://creativecommons.org/publicdomain/zero/1.0/"><cc:permits
           rdf:resource="http://creativecommons.org/ns#Reproduction" /><cc:permits
           rdf:resource="http://creativecommons.org/ns#Distribution" /><cc:permits
           rdf:resource="http://creativecommons.org/ns#DerivativeWorks" /></cc:License></rdf:RDF></metadata></svg>